<mxfile host="www.draw.io" modified="2019-11-28T08:48:06.002Z" agent="Mozilla/5.0 (Windows NT 6.1; Win64; x64) AppleWebKit/537.36 (KHTML, like Gecko) Chrome/78.0.3904.97 Safari/537.36" etag="7lrEBjO31hm-OYEs8p7X" version="12.3.2" type="github" pages="1">
  <diagram id="UZI54OdjoXtI-fkfl4Ee" name="Page-1">
    <mxGraphModel dx="1598" dy="702" grid="1" gridSize="10" guides="1" tooltips="1" connect="1" arrows="1" fold="1" page="1" pageScale="1" pageWidth="827" pageHeight="1169" math="0" shadow="0">
      <root>
        <mxCell id="0"/>
        <mxCell id="1" parent="0"/>
        <mxCell id="3aydWVwmgAvMywLurIB8-1" value="ViewRootImpl" style="shape=umlLifeline;perimeter=lifelinePerimeter;whiteSpace=wrap;html=1;container=1;collapsible=0;recursiveResize=0;outlineConnect=0;" parent="1" vertex="1">
          <mxGeometry y="40" width="120" height="1120" as="geometry"/>
        </mxCell>
        <mxCell id="fqfvEC5g-8lL0O5ghUnI-1" value="" style="html=1;points=[];perimeter=orthogonalPerimeter;" parent="3aydWVwmgAvMywLurIB8-1" vertex="1">
          <mxGeometry x="55" y="80" width="10" height="230" as="geometry"/>
        </mxCell>
        <mxCell id="fqfvEC5g-8lL0O5ghUnI-2" value="&lt;font style=&quot;font-size: 9px&quot;&gt;performDraw&lt;/font&gt;" style="edgeStyle=orthogonalEdgeStyle;html=1;align=left;spacingLeft=2;endArrow=block;rounded=0;entryX=1;entryY=0;" parent="3aydWVwmgAvMywLurIB8-1" target="fqfvEC5g-8lL0O5ghUnI-1" edge="1">
          <mxGeometry relative="1" as="geometry">
            <mxPoint x="60" y="60" as="sourcePoint"/>
            <Array as="points">
              <mxPoint x="85" y="60"/>
            </Array>
          </mxGeometry>
        </mxCell>
        <mxCell id="fqfvEC5g-8lL0O5ghUnI-5" value="" style="html=1;points=[];perimeter=orthogonalPerimeter;" parent="3aydWVwmgAvMywLurIB8-1" vertex="1">
          <mxGeometry x="60" y="110" width="10" height="40" as="geometry"/>
        </mxCell>
        <mxCell id="fqfvEC5g-8lL0O5ghUnI-6" value="draw" style="edgeStyle=orthogonalEdgeStyle;html=1;align=left;spacingLeft=2;endArrow=block;rounded=0;entryX=1;entryY=0;" parent="3aydWVwmgAvMywLurIB8-1" target="fqfvEC5g-8lL0O5ghUnI-5" edge="1">
          <mxGeometry relative="1" as="geometry">
            <mxPoint x="65" y="90" as="sourcePoint"/>
            <Array as="points">
              <mxPoint x="90" y="90"/>
            </Array>
          </mxGeometry>
        </mxCell>
        <mxCell id="fqfvEC5g-8lL0O5ghUnI-15" value="draw" style="html=1;verticalAlign=bottom;endArrow=block;entryX=0;entryY=0;entryDx=0;entryDy=0;entryPerimeter=0;" parent="3aydWVwmgAvMywLurIB8-1" target="fqfvEC5g-8lL0O5ghUnI-16" edge="1">
          <mxGeometry width="80" relative="1" as="geometry">
            <mxPoint x="70" y="150" as="sourcePoint"/>
            <mxPoint x="150" y="150" as="targetPoint"/>
          </mxGeometry>
        </mxCell>
        <mxCell id="fqfvEC5g-8lL0O5ghUnI-12" value="ThreadedRenderer" style="shape=umlLifeline;perimeter=lifelinePerimeter;whiteSpace=wrap;html=1;container=1;collapsible=0;recursiveResize=0;outlineConnect=0;" parent="1" vertex="1">
          <mxGeometry x="160" y="40" width="120" height="1130" as="geometry"/>
        </mxCell>
        <mxCell id="fqfvEC5g-8lL0O5ghUnI-16" value="" style="html=1;points=[];perimeter=orthogonalPerimeter;" parent="fqfvEC5g-8lL0O5ghUnI-12" vertex="1">
          <mxGeometry x="55" y="150" width="10" height="320" as="geometry"/>
        </mxCell>
        <mxCell id="fqfvEC5g-8lL0O5ghUnI-17" value="" style="html=1;points=[];perimeter=orthogonalPerimeter;" parent="fqfvEC5g-8lL0O5ghUnI-12" vertex="1">
          <mxGeometry x="60" y="170" width="10" height="260" as="geometry"/>
        </mxCell>
        <mxCell id="fqfvEC5g-8lL0O5ghUnI-18" value="&lt;font style=&quot;font-size: 6px&quot;&gt;updateRootDisplayList&lt;/font&gt;" style="edgeStyle=orthogonalEdgeStyle;html=1;align=left;spacingLeft=2;endArrow=block;rounded=0;entryX=1;entryY=0;" parent="fqfvEC5g-8lL0O5ghUnI-12" target="fqfvEC5g-8lL0O5ghUnI-17" edge="1">
          <mxGeometry x="-0.5432" y="10" relative="1" as="geometry">
            <mxPoint x="65" y="150" as="sourcePoint"/>
            <Array as="points">
              <mxPoint x="65" y="160"/>
              <mxPoint x="90" y="160"/>
              <mxPoint x="90" y="170"/>
            </Array>
            <mxPoint as="offset"/>
          </mxGeometry>
        </mxCell>
        <mxCell id="fqfvEC5g-8lL0O5ghUnI-19" value="" style="html=1;points=[];perimeter=orthogonalPerimeter;" parent="fqfvEC5g-8lL0O5ghUnI-12" vertex="1">
          <mxGeometry x="65" y="200" width="10" height="40" as="geometry"/>
        </mxCell>
        <mxCell id="fqfvEC5g-8lL0O5ghUnI-20" value="updateViewTreeDisplayList" style="edgeStyle=orthogonalEdgeStyle;html=1;align=left;spacingLeft=2;endArrow=block;rounded=0;entryX=1;entryY=0;" parent="fqfvEC5g-8lL0O5ghUnI-12" target="fqfvEC5g-8lL0O5ghUnI-19" edge="1">
          <mxGeometry relative="1" as="geometry">
            <mxPoint x="70" y="180" as="sourcePoint"/>
            <Array as="points">
              <mxPoint x="95" y="180"/>
            </Array>
          </mxGeometry>
        </mxCell>
        <mxCell id="fqfvEC5g-8lL0O5ghUnI-21" value="View" style="shape=umlLifeline;perimeter=lifelinePerimeter;whiteSpace=wrap;html=1;container=1;collapsible=0;recursiveResize=0;outlineConnect=0;" parent="1" vertex="1">
          <mxGeometry x="360" y="40" width="120" height="1130" as="geometry"/>
        </mxCell>
        <mxCell id="fqfvEC5g-8lL0O5ghUnI-27" value="" style="html=1;verticalAlign=bottom;endArrow=block;entryX=0.143;entryY=-0.002;entryDx=0;entryDy=0;entryPerimeter=0;" parent="fqfvEC5g-8lL0O5ghUnI-21" target="fqfvEC5g-8lL0O5ghUnI-28" edge="1">
          <mxGeometry width="80" relative="1" as="geometry">
            <mxPoint x="65" y="250" as="sourcePoint"/>
            <mxPoint x="250" y="250" as="targetPoint"/>
          </mxGeometry>
        </mxCell>
        <mxCell id="fqfvEC5g-8lL0O5ghUnI-23" value="" style="html=1;points=[];perimeter=orthogonalPerimeter;" parent="fqfvEC5g-8lL0O5ghUnI-21" vertex="1">
          <mxGeometry x="55" y="240" width="10" height="230" as="geometry"/>
        </mxCell>
        <mxCell id="fqfvEC5g-8lL0O5ghUnI-22" value="&lt;span style=&quot;font-size: 11px&quot;&gt;updateDisplayListIfDirty&lt;/span&gt;" style="html=1;verticalAlign=bottom;endArrow=block;entryX=0.029;entryY=-0.002;entryDx=0;entryDy=0;entryPerimeter=0;" parent="1" target="fqfvEC5g-8lL0O5ghUnI-23" edge="1">
          <mxGeometry width="80" relative="1" as="geometry">
            <mxPoint x="235" y="280" as="sourcePoint"/>
            <mxPoint x="410" y="280" as="targetPoint"/>
          </mxGeometry>
        </mxCell>
        <mxCell id="fqfvEC5g-8lL0O5ghUnI-26" value="RenderNode" style="shape=umlLifeline;perimeter=lifelinePerimeter;whiteSpace=wrap;html=1;container=1;collapsible=0;recursiveResize=0;outlineConnect=0;" parent="1" vertex="1">
          <mxGeometry x="720" y="39" width="120" height="1130" as="geometry"/>
        </mxCell>
        <mxCell id="fqfvEC5g-8lL0O5ghUnI-28" value="" style="html=1;points=[];perimeter=orthogonalPerimeter;" parent="fqfvEC5g-8lL0O5ghUnI-26" vertex="1">
          <mxGeometry x="55" y="250" width="10" height="220" as="geometry"/>
        </mxCell>
        <mxCell id="fqfvEC5g-8lL0O5ghUnI-32" value="obtain" style="html=1;verticalAlign=bottom;endArrow=block;" parent="fqfvEC5g-8lL0O5ghUnI-26" edge="1">
          <mxGeometry width="80" relative="1" as="geometry">
            <mxPoint x="65" y="260" as="sourcePoint"/>
            <mxPoint x="250" y="259" as="targetPoint"/>
          </mxGeometry>
        </mxCell>
        <mxCell id="fqfvEC5g-8lL0O5ghUnI-31" value="RecordingCanvas" style="shape=umlLifeline;perimeter=lifelinePerimeter;whiteSpace=wrap;html=1;container=1;collapsible=0;recursiveResize=0;outlineConnect=0;" parent="1" vertex="1">
          <mxGeometry x="920" y="39" width="120" height="1130" as="geometry"/>
        </mxCell>
        <mxCell id="fqfvEC5g-8lL0O5ghUnI-33" value="" style="html=1;points=[];perimeter=orthogonalPerimeter;" parent="fqfvEC5g-8lL0O5ghUnI-31" vertex="1">
          <mxGeometry x="50" y="260" width="10" height="210" as="geometry"/>
        </mxCell>
        <mxCell id="fqfvEC5g-8lL0O5ghUnI-34" value="" style="html=1;points=[];perimeter=orthogonalPerimeter;" parent="fqfvEC5g-8lL0O5ghUnI-31" vertex="1">
          <mxGeometry x="55" y="290" width="10" height="40" as="geometry"/>
        </mxCell>
        <mxCell id="fqfvEC5g-8lL0O5ghUnI-35" value="RecordingCanvas" style="edgeStyle=orthogonalEdgeStyle;html=1;align=left;spacingLeft=2;endArrow=block;rounded=0;entryX=1;entryY=0;" parent="fqfvEC5g-8lL0O5ghUnI-31" target="fqfvEC5g-8lL0O5ghUnI-34" edge="1">
          <mxGeometry relative="1" as="geometry">
            <mxPoint x="60" y="270" as="sourcePoint"/>
            <Array as="points">
              <mxPoint x="85" y="270"/>
            </Array>
          </mxGeometry>
        </mxCell>
        <mxCell id="fqfvEC5g-8lL0O5ghUnI-37" value="nCreateDisplayListCanvas" style="html=1;verticalAlign=bottom;endArrow=block;" parent="fqfvEC5g-8lL0O5ghUnI-31" edge="1">
          <mxGeometry width="80" relative="1" as="geometry">
            <mxPoint x="65" y="330" as="sourcePoint"/>
            <mxPoint x="254" y="329" as="targetPoint"/>
          </mxGeometry>
        </mxCell>
        <mxCell id="fqfvEC5g-8lL0O5ghUnI-36" value="Canvas&lt;br&gt;Native" style="shape=umlLifeline;perimeter=lifelinePerimeter;whiteSpace=wrap;html=1;container=1;collapsible=0;recursiveResize=0;outlineConnect=0;" parent="1" vertex="1">
          <mxGeometry x="1120" y="39" width="120" height="1120" as="geometry"/>
        </mxCell>
        <mxCell id="fqfvEC5g-8lL0O5ghUnI-38" value="" style="html=1;points=[];perimeter=orthogonalPerimeter;" parent="fqfvEC5g-8lL0O5ghUnI-36" vertex="1">
          <mxGeometry x="55" y="330" width="10" height="140" as="geometry"/>
        </mxCell>
        <mxCell id="fqfvEC5g-8lL0O5ghUnI-41" value="SkiaRecordingCanvas" style="html=1;verticalAlign=bottom;endArrow=block;entryX=0.074;entryY=-0.005;entryDx=0;entryDy=0;entryPerimeter=0;" parent="fqfvEC5g-8lL0O5ghUnI-36" target="fqfvEC5g-8lL0O5ghUnI-42" edge="1">
          <mxGeometry width="80" relative="1" as="geometry">
            <mxPoint x="65" y="340" as="sourcePoint"/>
            <mxPoint x="260" y="340" as="targetPoint"/>
          </mxGeometry>
        </mxCell>
        <mxCell id="fqfvEC5g-8lL0O5ghUnI-39" value="SkiaRecordingCanvas&lt;br&gt;Native" style="shape=umlLifeline;perimeter=lifelinePerimeter;whiteSpace=wrap;html=1;container=1;collapsible=0;recursiveResize=0;outlineConnect=0;" parent="1" vertex="1">
          <mxGeometry x="1720" y="39" width="120" height="1120" as="geometry"/>
        </mxCell>
        <mxCell id="fqfvEC5g-8lL0O5ghUnI-42" value="" style="html=1;points=[];perimeter=orthogonalPerimeter;" parent="fqfvEC5g-8lL0O5ghUnI-39" vertex="1">
          <mxGeometry x="55" y="340" width="10" height="240" as="geometry"/>
        </mxCell>
        <mxCell id="fqfvEC5g-8lL0O5ghUnI-43" value="" style="html=1;points=[];perimeter=orthogonalPerimeter;" parent="fqfvEC5g-8lL0O5ghUnI-39" vertex="1">
          <mxGeometry x="60" y="380" width="10" height="40" as="geometry"/>
        </mxCell>
        <mxCell id="fqfvEC5g-8lL0O5ghUnI-44" value="initDisplayList" style="edgeStyle=orthogonalEdgeStyle;html=1;align=left;spacingLeft=2;endArrow=block;rounded=0;entryX=1;entryY=0;" parent="fqfvEC5g-8lL0O5ghUnI-39" target="fqfvEC5g-8lL0O5ghUnI-43" edge="1">
          <mxGeometry relative="1" as="geometry">
            <mxPoint x="65" y="360" as="sourcePoint"/>
            <Array as="points">
              <mxPoint x="90" y="360"/>
            </Array>
          </mxGeometry>
        </mxCell>
        <mxCell id="h4Vpxc6qRqVPGp88nEN--27" value="attachRecorder" style="html=1;verticalAlign=bottom;endArrow=block;entryX=-0.006;entryY=-0.003;entryDx=0;entryDy=0;entryPerimeter=0;" edge="1" parent="fqfvEC5g-8lL0O5ghUnI-39" target="h4Vpxc6qRqVPGp88nEN--26">
          <mxGeometry width="80" relative="1" as="geometry">
            <mxPoint x="70" y="491" as="sourcePoint"/>
            <mxPoint x="150" y="491" as="targetPoint"/>
          </mxGeometry>
        </mxCell>
        <mxCell id="fqfvEC5g-8lL0O5ghUnI-45" value="SkiaDisplayList&lt;br&gt;Native" style="shape=umlLifeline;perimeter=lifelinePerimeter;whiteSpace=wrap;html=1;container=1;collapsible=0;recursiveResize=0;outlineConnect=0;" parent="1" vertex="1">
          <mxGeometry x="1960" y="39" width="120" height="1120" as="geometry"/>
        </mxCell>
        <mxCell id="fqfvEC5g-8lL0O5ghUnI-49" value="" style="html=1;points=[];perimeter=orthogonalPerimeter;" parent="fqfvEC5g-8lL0O5ghUnI-45" vertex="1">
          <mxGeometry x="55" y="420" width="10" height="30" as="geometry"/>
        </mxCell>
        <mxCell id="h4Vpxc6qRqVPGp88nEN--18" value="" style="html=1;points=[];perimeter=orthogonalPerimeter;" vertex="1" parent="fqfvEC5g-8lL0O5ghUnI-45">
          <mxGeometry x="55" y="461" width="10" height="19" as="geometry"/>
        </mxCell>
        <mxCell id="h4Vpxc6qRqVPGp88nEN--26" value="" style="html=1;points=[];perimeter=orthogonalPerimeter;" vertex="1" parent="fqfvEC5g-8lL0O5ghUnI-45">
          <mxGeometry x="55" y="491" width="10" height="79" as="geometry"/>
        </mxCell>
        <mxCell id="h4Vpxc6qRqVPGp88nEN--29" value="reset" style="html=1;verticalAlign=bottom;endArrow=block;entryX=0.012;entryY=0.01;entryDx=0;entryDy=0;entryPerimeter=0;" edge="1" parent="fqfvEC5g-8lL0O5ghUnI-45" target="h4Vpxc6qRqVPGp88nEN--28">
          <mxGeometry x="0.403" y="9" width="80" relative="1" as="geometry">
            <mxPoint x="70" y="491" as="sourcePoint"/>
            <mxPoint x="150" y="491" as="targetPoint"/>
            <mxPoint x="-1" as="offset"/>
          </mxGeometry>
        </mxCell>
        <mxCell id="fqfvEC5g-8lL0O5ghUnI-50" value="SkiaDisplayList" style="html=1;verticalAlign=bottom;endArrow=block;entryX=0.02;entryY=-0.002;entryDx=0;entryDy=0;entryPerimeter=0;" parent="1" target="fqfvEC5g-8lL0O5ghUnI-49" edge="1">
          <mxGeometry width="80" relative="1" as="geometry">
            <mxPoint x="1790" y="459" as="sourcePoint"/>
            <mxPoint x="2010" y="459" as="targetPoint"/>
          </mxGeometry>
        </mxCell>
        <mxCell id="fqfvEC5g-8lL0O5ghUnI-51" value="DisplayListData&lt;br&gt;Native" style="shape=umlLifeline;perimeter=lifelinePerimeter;whiteSpace=wrap;html=1;container=1;collapsible=0;recursiveResize=0;outlineConnect=0;" parent="1" vertex="1">
          <mxGeometry x="2150" y="39" width="120" height="1120" as="geometry"/>
        </mxCell>
        <mxCell id="h4Vpxc6qRqVPGp88nEN--19" value="" style="html=1;points=[];perimeter=orthogonalPerimeter;" vertex="1" parent="fqfvEC5g-8lL0O5ghUnI-51">
          <mxGeometry x="55" y="461" width="10" height="19" as="geometry"/>
        </mxCell>
        <mxCell id="h4Vpxc6qRqVPGp88nEN--3" value="ViewGroup" style="shape=umlLifeline;perimeter=lifelinePerimeter;whiteSpace=wrap;html=1;container=1;collapsible=0;recursiveResize=0;outlineConnect=0;" vertex="1" parent="1">
          <mxGeometry x="540" y="39" width="120" height="1130" as="geometry"/>
        </mxCell>
        <mxCell id="h4Vpxc6qRqVPGp88nEN--8" value="beginRecording" style="text;html=1;" vertex="1" parent="1">
          <mxGeometry x="670" y="260" width="170" height="30" as="geometry"/>
        </mxCell>
        <mxCell id="h4Vpxc6qRqVPGp88nEN--9" value="SkiaCanvas&lt;br&gt;Native" style="shape=umlLifeline;perimeter=lifelinePerimeter;whiteSpace=wrap;html=1;container=1;collapsible=0;recursiveResize=0;outlineConnect=0;" vertex="1" parent="1">
          <mxGeometry x="1320" y="39" width="120" height="1120" as="geometry"/>
        </mxCell>
        <mxCell id="h4Vpxc6qRqVPGp88nEN--12" value="SkCanvas&lt;br&gt;Native" style="shape=umlLifeline;perimeter=lifelinePerimeter;whiteSpace=wrap;html=1;container=1;collapsible=0;recursiveResize=0;outlineConnect=0;" vertex="1" parent="1">
          <mxGeometry x="1520" y="40" width="120" height="1120" as="geometry"/>
        </mxCell>
        <mxCell id="h4Vpxc6qRqVPGp88nEN--13" value="RecordingCanvas&lt;br&gt;Native" style="shape=umlLifeline;perimeter=lifelinePerimeter;whiteSpace=wrap;html=1;container=1;collapsible=0;recursiveResize=0;outlineConnect=0;" vertex="1" parent="1">
          <mxGeometry x="2361" y="40" width="120" height="1120" as="geometry"/>
        </mxCell>
        <mxCell id="h4Vpxc6qRqVPGp88nEN--28" value="" style="html=1;points=[];perimeter=orthogonalPerimeter;" vertex="1" parent="h4Vpxc6qRqVPGp88nEN--13">
          <mxGeometry x="55" y="490" width="10" height="90" as="geometry"/>
        </mxCell>
        <mxCell id="h4Vpxc6qRqVPGp88nEN--42" value="" style="html=1;points=[];perimeter=orthogonalPerimeter;" vertex="1" parent="h4Vpxc6qRqVPGp88nEN--13">
          <mxGeometry x="60" y="510" width="10" height="40" as="geometry"/>
        </mxCell>
        <mxCell id="h4Vpxc6qRqVPGp88nEN--43" value="resetCanvas" style="edgeStyle=orthogonalEdgeStyle;html=1;align=left;spacingLeft=2;endArrow=block;rounded=0;entryX=1;entryY=0;" edge="1" target="h4Vpxc6qRqVPGp88nEN--42" parent="h4Vpxc6qRqVPGp88nEN--13">
          <mxGeometry relative="1" as="geometry">
            <mxPoint x="65" y="490" as="sourcePoint"/>
            <Array as="points">
              <mxPoint x="90" y="490"/>
            </Array>
          </mxGeometry>
        </mxCell>
        <mxCell id="h4Vpxc6qRqVPGp88nEN--17" value="reset" style="html=1;verticalAlign=bottom;endArrow=block;entryX=0.05;entryY=0.004;entryDx=0;entryDy=0;entryPerimeter=0;" edge="1" parent="1" target="h4Vpxc6qRqVPGp88nEN--18">
          <mxGeometry x="0.0022" width="80" relative="1" as="geometry">
            <mxPoint x="1784" y="500" as="sourcePoint"/>
            <mxPoint x="2000" y="500" as="targetPoint"/>
            <mxPoint as="offset"/>
          </mxGeometry>
        </mxCell>
        <mxCell id="h4Vpxc6qRqVPGp88nEN--20" value="reset" style="html=1;verticalAlign=bottom;endArrow=block;exitX=0.967;exitY=0.001;exitDx=0;exitDy=0;exitPerimeter=0;entryX=-0.006;entryY=0.001;entryDx=0;entryDy=0;entryPerimeter=0;" edge="1" parent="1" source="h4Vpxc6qRqVPGp88nEN--18" target="h4Vpxc6qRqVPGp88nEN--19">
          <mxGeometry x="0.0576" width="80" relative="1" as="geometry">
            <mxPoint x="2030" y="500" as="sourcePoint"/>
            <mxPoint x="2200" y="500" as="targetPoint"/>
            <mxPoint as="offset"/>
          </mxGeometry>
        </mxCell>
      </root>
    </mxGraphModel>
  </diagram>
</mxfile>
